<?xml version="1.0" encoding="utf-8"?>
<!-- Generator: Adobe Illustrator 26.0.1, SVG Export Plug-In . SVG Version: 6.00 Build 0)  -->
<svg version="1.1" id="Layer_1" xmlns="http://www.w3.org/2000/svg" xmlns:xlink="http://www.w3.org/1999/xlink" x="0px" y="0px"
	 viewBox="0 0 864 1152" style="enable-background:new 0 0 864 1152;" xml:space="preserve">
<style type="text/css">
	.st0{fill:#2E89FF;}
	.st1{fill:#FFFFFF;}
</style>
<g>
	<circle class="st0" cx="432" cy="576" r="209.32"/>
	<g>
		<path class="st1" d="M298.48,576L298.48,576c0-4.01,3.25-7.25,7.25-7.25h252.53c4.01,0,7.25,3.25,7.25,7.25l0,0
			c0,4.01-3.25,7.25-7.25,7.25H305.74C301.73,583.25,298.48,580.01,298.48,576z"/>
		<path class="st1" d="M432,709.52L432,709.52c-4.01,0-7.25-3.25-7.25-7.25V449.74c0-4.01,3.25-7.25,7.25-7.25l0,0
			c4.01,0,7.25,3.25,7.25,7.25v252.53C439.25,706.27,436.01,709.52,432,709.52z"/>
	</g>
</g>
</svg>
